<svg fill="none" height="190" viewBox="0 0 150 190" width="150" xmlns="http://www.w3.org/2000/svg"><path clip-rule="evenodd" d="m113.8 104.53-34.56 7.6c-3.24 5.1 5.76 8.87 7.13 7.59l1.31 2.14c-4.68 5.51-14.14 8.64-21.56 6.14-16.12 16.34-35.84 26.58-35.84 26.58l-12.68-83.58s22.4 4.38 42.79 15.3c7-4.1 17.1-4.81 25 .33l-.44 2.74c-6.45-.1-10.29 4.34-8.49 7.64l.24.22 35.49-2.9 22.49-12.12 1.23 24.28zm-75.98 27.47c-4.92.78-4.12 8.49 1.56 7.59 4.79-.72 3.45-8.35-1.56-7.59zm10.69-31-8.13 1.76 4.54 20.08 6.53-1.62zm16-3.22-8.21 1.31 4.14 19.93 6.61-1.62zm19.16-22.78 1.42-14.88-4.41-1.12 2.14-10.59-9.3-.23s-1.52 11.59-1.93 15.47c-1.38 14.06-19.94 9.63-14.41-2.58l10.42 1.4 1.54-23.47 25.19 1.41-4 12.08 4.63 1.1zm-22.75-46.3s-1.61 12.66-1.87 15.3c-1.41 14.43-21.56 10.57-15.59-2.63l11.27 1.51 1.74-23.88 16.63.87c1.64 5.9-5.2 8.83-12.18 8.83z" fill="#000" fill-rule="evenodd"/></svg>