<?xml version="1.0" encoding="utf-8"?>
<!-- Generator: Adobe Illustrator 23.0.6, SVG Export Plug-In . SVG Version: 6.00 Build 0)  -->
<svg version="1.1" id="Layer_1" xmlns="http://www.w3.org/2000/svg" xmlns:xlink="http://www.w3.org/1999/xlink" x="0px" y="0px"
	 viewBox="0 0 1649.1 264.7" style="enable-background:new 0 0 1649.1 264.7;" xml:space="preserve">
<style type="text/css">
	.st0{fill:#5D2567;}
</style>
<g>
	<path class="st0" d="M834.8,135.7C848.9,129,948.3,77.3,986.5,0L771.4,29.8c10.7,36.5,24.9,70.9,44.9,101.9
		C816.3,131.7,821.6,142.3,834.8,135.7z"/>
	<path class="st0" d="M790.2,143.2c-16.8-34.6-31.4-70.9-38.9-110.3c0,0-35,6.9-41,8.4s-23.4,11.1-19.1,27.1
		c4.3,16.1,32.3,132,35.8,139.2s9.9,20.7,34.2,24.1c24.3,3.4,114.8,13.4,114.8,13.4c-18.9-17.7-45.9-43.8-59.7-59.8
		c-6.9-8-19.8-7.1-19.8-7.1c-21,3.1-32.3,3.8-52.2,4.9l-3-9.5c15.2-4.6,30.8-8.8,45.2-14.8C786.4,158.7,796,155.2,790.2,143.2z"/>
	<path class="st0" d="M858,165.6c61.1-23.1,115.7-58.5,161.1-103l10.2,181.4c1.4,20.5-14.4,20.6-22.1,20.8c-7.7,0.3-46.5-4.7-58-6.6
		s-68.1-49.1-95.2-81.1C854,177,849.4,169.7,858,165.6z"/>
	<path class="st0" d="M0.3,223.1l-0.3-2c7.7-14.6,7.7-11.9,7.7-21V47.9c0-6.6,0-11.4-7.5-22.7L0.5,23h74.2c42.9,0,60.9,26,60.9,51.8
		c0,24.9-16.9,42.9-38.7,48.4l-0.3,1.4l18.8,35.4c17.1,31.6,30.2,54.5,45.9,54.5h2.2v3.3c-4.4,4.4-9.4,8-18.3,8
		c-24.3,0-35.7-21.6-52.6-53.4L71,128.1H38.7c-1.7,0-3,1.1-3,2.5v69.5c0,8.9,0,6.9,8.3,20.8v2.2L0.3,223.1L0.3,223.1z M71.1,109.3
		c19.4,0,36.3-11.1,36.3-32.4c0-19.4-11.4-35.1-37.6-35.1h-31c-1.4,0-3,1.1-3,2.2v63.4c0,0.8,1.4,1.9,2.8,1.9
		C38.6,109.3,71.1,109.3,71.1,109.3z"/>
	<path class="st0" d="M225.5,223.1h-40.4l-0.6-1.9c7.5-13.8,7.5-15.8,7.5-23.2V77.8c0-6.4,0-9.7-7.2-21.6l0.8-1.9h39.6l0.5,1.9
		c-6.9,11.9-6.9,15.2-6.9,21.6V199c0,7.5,0,8.3,7.2,22.1L225.5,223.1z"/>
	<path class="st0" d="M388.9,219.2l-0.8,0.3c-5.5-1.4-8.9,0-8.9,0c-10.8,4.2-23,6.4-40.4,6.4c-47,0-89.1-30.2-89.1-87.2
		c0-51.2,42.1-87.2,88.8-87.2c9.7,0,24.1,1.1,32.9,4.4c0,0,4.7,0.8,10-0.8l0.8,0.3l12,27.6l-3.6,3.6c-11.1-10.8-33.8-17.5-51.2-17.5
		c-34,0-61.7,27.7-61.7,69.5c0,41.5,27.7,69.2,62,69.2c25.7,0,46.5-8.9,58.4-19.9l3,2.5L388.9,219.2z"/>
	<path class="st0" d="M587,223.1h-40.4l-0.6-1.9c7.5-13.8,7.5-15.8,7.5-23.2v-50.4h-91.9V198c0,7.5,0,9.4,7.2,23.2l-0.6,1.9h-40.4
		l-0.6-1.9c7.5-13.8,7.5-15.8,7.5-23.2V77.8c0-6.4,0-9.7-7.2-21.6l0.5-1.9h40l0.6,1.9c-6.9,11.9-6.9,15.2-6.9,21.6v50.6h91.9V77.8
		c0-6.4,0-9.7-7.2-21.6l0.8-1.9h39.6l0.5,1.9c-6.9,11.9-6.9,15.2-6.9,21.6v120.1c0,7.5,0,9.4,7.2,23.2L587,223.1z"/>
	<path class="st0" d="M1299.5,122.6c0,55.3-37.9,100.5-105.2,100.5h-59.5l-0.5-2.2c7.7-14.7,7.7-16.4,7.7-24.1V47.6
		c0-6.6,0-10-7.5-22.7l0.6-1.9h64.8C1267.4,23,1299.5,67.5,1299.5,122.6z M1269.8,122.6c0-52.3-30.2-80.8-72.8-80.8h-23.3
		c-1.6,0-3.6,1.4-3.6,3.6v157.2l20.2,1.6h4.4C1238.8,204.3,1269.8,176.3,1269.8,122.6z"/>
	<path class="st0" d="M1402.7,178.8h-70.3l-13.6,33.8l3.3,8.9v1.7h-34.6v-1.7l10-12.7l57.6-138.4l-6.9-14.1l0.8-1.9h30.4l62.3,154.4
		l7.7,13l-0.5,1.4h-37.1l-0.6-1.1l5-9.4L1402.7,178.8z M1340.4,159.4h54.5l-26.6-65.9h-1.4L1340.4,159.4z"/>
	<path class="st0" d="M1606.5,138.4c0,49-34.3,84.7-95.8,84.7h-54.5l-0.3-1.9c7.2-12.7,7.2-14.6,7.2-21v-124c0-6.1,0-8.8-7.2-19.9
		l0.5-1.9h59.5C1577.4,54.3,1606.5,89.4,1606.5,138.4z M1578.5,138.4c0-45.1-27.1-65.6-64.8-65.6H1493c-1.1,0-3,1.1-3,3v127
		l17.4,1.6h3.9C1550.6,204.5,1578.5,184.9,1578.5,138.4z"/>
	<g>
		<path class="st0" d="M1630.9,188.1c9.9,0,18.2,7.8,18.2,18c0,10.4-8.3,18.2-18.2,18.2c-9.9,0-18.2-7.8-18.2-18.2
			C1612.7,195.9,1621,188.1,1630.9,188.1z M1630.9,221.6c8.4,0,14.9-6.7,14.9-15.5c0-8.7-6.5-15.3-14.9-15.3
			c-8.5,0-14.9,6.7-14.9,15.3C1616,214.9,1622.5,221.6,1630.9,221.6z M1623.9,195.6h8.2c5,0,7.4,2,7.4,6.1c0,3.8-2.4,5.4-5.6,5.8
			l6,9.3h-3.5l-5.8-9.1h-3.5v9.1h-3.3v-21.2H1623.9z M1627.2,204.9h3.4c2.9,0,5.6-0.1,5.6-3.5c0-2.8-2.4-3.2-4.6-3.2h-4.4V204.9z"/>
	</g>
</g>
</svg>
